<svg width="140" height="67" viewBox="0 0 140 67" fill="none" xmlns="http://www.w3.org/2000/svg">
<g clip-path="url(#clip0_555_99)">
<path d="M33.1026 0H33.093C14.8162 0 0 14.8921 0 33.2625V33.2722C0 51.6425 14.8162 66.5347 33.093 66.5347H33.1026C51.3794 66.5347 66.1957 51.6425 66.1957 33.2722V33.2625C66.1957 14.8921 51.3794 0 33.1026 0Z" fill="white"/>
<path d="M34.654 51.2203C39.3156 51.2203 43.5533 49.565 46.7124 45.7411L43.2162 42.7305C40.8469 45.2571 37.8131 46.5253 34.654 46.5253C31.4854 46.5253 28.4611 45.2571 26.0919 42.7305L22.5957 45.7411C25.7548 49.5746 29.9925 51.2203 34.654 51.2203Z" fill="#FDD000"/>
<path d="M106.908 37.5622C107.052 38.4431 106.802 39.8177 105.906 40.8245C105.097 41.7442 103.903 42.1798 102.448 42.0927C100.57 41.9765 99.6263 41.0569 99.2988 39.0336L99.2314 38.6173L99.0099 38.9755C97.7193 41.0472 95.5715 42.0927 92.9518 41.9378C89.4653 41.7248 87.5391 39.3143 87.5391 35.1323V24.1836H93.1733V33.4189C93.1733 35.355 94.2232 36.4876 96.0435 36.5263C96.0627 36.5263 96.0916 36.5263 96.1109 36.5263C97.7097 36.5263 98.9521 35.4421 99.1351 33.8448V24.1836H104.769V35.9649C104.769 36.6231 104.827 37.2621 105.521 37.3492C105.771 37.3782 106.089 37.3395 106.397 37.2427C106.397 37.2427 106.782 37.0491 106.888 37.5622H106.908Z" fill="white"/>
<path d="M132.643 37.0656C130.283 37.0656 128.443 35.5167 128.443 32.4576C128.443 29.7374 129.647 28.2465 132.007 28.0336C132.98 27.9464 133.924 28.1788 134.463 28.6434C134.742 28.8855 134.906 29.1759 134.925 29.4953C134.945 29.7664 134.935 30.1246 134.752 30.415C133.972 31.6444 131.67 31.8961 130.591 31.4508C130.341 31.3443 130.09 31.6541 130.081 31.9252C130.052 32.8642 130.283 34.7906 132.614 35.0907C132.729 35.1101 132.845 35.1101 132.96 35.1101C135.484 35.0423 137.391 34.0743 138.296 33.2901C140.184 31.6444 140.271 29.5631 139.645 27.8206C138.681 25.1584 135.946 23.6289 132.161 23.6289C126.768 23.6289 122.848 27.5205 122.848 32.8932C122.848 38.2659 126.373 42.0027 131.612 42.0995C136.322 42.1672 138.951 40.0762 139.779 39.1469L136.823 35.8942C136.168 36.3589 134.752 37.0656 132.633 37.0656H132.643Z" fill="white"/>
<path d="M120.699 30.534C120.834 30.9502 121.296 30.805 121.672 30.5727C123.53 29.4498 123.945 26.5359 123.376 25.3161C122.77 24.0093 121.672 23.4575 120.025 23.622C117.867 23.8447 116.163 25.5388 115.276 28.1526L114.968 29.0625V24.1835H109.334V41.5408H114.968V32.1506C115.286 30.805 116.644 29.8467 117.819 29.4014C119.042 29.0045 120.217 29.0819 120.709 30.534H120.699Z" fill="white"/>
<path d="M78.7361 30.494C76.3379 29.8841 75.5963 29.5937 75.4711 28.8967C75.3941 28.4707 75.5963 28.0351 75.7986 27.8415C76.1549 27.5027 76.9447 27.2413 78.0908 27.28C78.948 27.3091 79.7185 27.7253 80.1326 28.1997C80.4119 28.5191 80.5853 28.9838 80.4601 29.4485C80.4601 29.4485 80.3638 29.6421 80.5564 29.7195C80.6816 29.7776 80.9417 29.8066 81.3269 29.7776C82.9257 29.7195 84.8423 29.2742 84.9868 27.5607C85.0446 26.825 84.7845 26.1183 84.2163 25.5181C83.0509 24.2887 80.7009 23.582 77.7537 23.582C73.2848 23.582 69.7598 25.7214 69.7598 28.8967C69.7598 31.6363 71.7149 33.1174 75.4133 34.1532C79.1214 35.2084 79.6222 35.5666 79.6222 36.3991C79.6222 36.9025 79.1792 37.7544 77.3685 37.8512C75.8564 37.9383 73.882 37.1542 72.7936 35.7892L69.4805 38.3933C71.3297 40.8522 73.9975 42.0332 77.5129 42.0332C82.3286 42.0332 85.1698 39.6421 85.1698 36.2152C85.1698 33.282 83.3591 31.6847 78.7265 30.5133L78.7361 30.494Z" fill="white"/>
<path d="M35.1544 37.0656C32.7947 37.0656 30.9551 35.5167 30.9551 32.4576C30.9551 29.7374 32.159 28.2465 34.5187 28.0336C35.4915 27.9464 36.4353 28.1788 36.9747 28.6434C37.254 28.8855 37.4177 29.1759 37.437 29.4953C37.4562 29.7664 37.437 30.1246 37.2636 30.415C36.6472 31.4121 34.1816 31.8961 33.1029 31.4508C32.8525 31.3443 32.6021 31.6541 32.5925 31.9252C32.5636 32.8642 32.7947 34.7906 35.1255 35.0907C35.241 35.1101 35.3566 35.1101 35.4722 35.1101C37.9956 35.0423 39.9026 34.0743 40.8079 33.2901C42.6956 31.6444 42.7823 29.5631 42.1563 27.8206C41.1932 25.1584 38.4579 23.6289 34.6728 23.6289C29.2793 23.6289 25.3594 27.5205 25.3594 32.8932C25.3594 38.2659 28.8844 42.0027 34.1238 42.0995C38.8335 42.1672 41.4628 40.0762 42.2911 39.1469L39.3343 35.8942C38.6794 36.3589 37.2636 37.0656 35.1447 37.0656H35.1544Z" fill="#2E59A7"/>
<path d="M7.68609 32.6615C7.9365 32.8261 8.17728 32.8261 8.37954 32.5454C8.58179 32.2453 8.76479 31.9936 8.96704 31.8387C9.41971 31.4902 9.86275 31.3547 10.4503 31.3063C11.5482 31.2095 12.8099 31.374 14.1101 32.8552C16.4216 35.498 15.42 39.2443 15.42 39.2443C15.42 39.2443 14.0138 44.4235 8.2447 42.5164L7.11784 47.0082C8.35064 47.4825 9.80496 47.9859 12.8003 47.5116C14.2931 47.2695 17.8182 46.1176 19.4555 41.6548L25.8314 24.1814H19.494L16.9899 33.4457C16.9032 30.4834 16.1134 24.0845 11.2304 23.3779C8.40843 22.9713 6.77112 25.3527 6.51107 27.2404C5.91393 31.5483 7.69572 32.6615 7.69572 32.6615H7.68609Z" fill="#2E59A7"/>
<path d="M51.5865 37.8317C49.7758 37.7349 49.3328 36.883 49.3328 36.3796C49.3328 35.5471 49.824 35.1986 53.5416 34.1337C57.24 33.0882 59.1952 31.6167 59.1952 28.8771C59.1952 25.7019 55.6798 23.5625 51.2012 23.5625C48.2637 23.5625 45.904 24.2692 44.7387 25.4986C44.1704 26.0988 43.9104 26.8055 43.9682 27.5412C44.1223 29.2547 46.0389 29.7 47.628 29.7581C48.0133 29.7871 48.2733 29.7581 48.3985 29.7C48.5815 29.6129 48.4948 29.4289 48.4948 29.4289C48.3696 28.9643 48.5526 28.4899 48.8223 28.1801C49.2364 27.7155 50.007 27.2895 50.8641 27.2605C52.0103 27.2218 52.8 27.4831 53.166 27.822C53.3779 28.0252 53.5705 28.4609 53.4935 28.8771C53.3683 29.5741 52.6363 29.8646 50.2285 30.4744C45.5862 31.6458 43.7852 33.2528 43.7852 36.1763C43.7852 39.5935 46.6264 41.9943 51.442 41.9943C54.9574 41.9943 57.6253 40.8036 59.4745 38.3544L56.1613 35.7504C55.073 37.1153 53.0986 37.8994 51.5865 37.8123V37.8317Z" fill="#2E59A7"/>
</g>
<defs>
<clipPath id="clip0_555_99">
<rect width="140" height="66.5347" fill="white"/>
</clipPath>
</defs>
</svg>
