<svg width="70" height="33" viewBox="0 0 70 33" fill="none" xmlns="http://www.w3.org/2000/svg">
<g clip-path="url(#clip0_555_830)">
<path d="M16.5513 0H16.5465C7.40812 0 0 7.38623 0 16.4976V16.5024C0 25.6138 7.40812 33 16.5465 33H16.5513C25.6897 33 33.0978 25.6138 33.0978 16.5024V16.4976C33.0978 7.38623 25.6897 0 16.5513 0Z" fill="white"/>
<path d="M17.326 25.4022C19.6568 25.4022 21.7757 24.5812 23.3552 22.6846L21.6071 21.1914C20.4225 22.4446 18.9056 23.0736 17.326 23.0736C15.7417 23.0736 14.2296 22.4446 13.0449 21.1914L11.2969 22.6846C12.8764 24.586 14.9953 25.4022 17.326 25.4022Z" fill="#FDD000"/>
<path d="M53.4499 18.6277C53.5221 19.0646 53.3969 19.7464 52.949 20.2458C52.5445 20.7019 51.9474 20.918 51.2202 20.8748C50.2812 20.8172 49.8092 20.361 49.6455 19.3575L49.6118 19.1511L49.501 19.3287C48.8557 20.3562 47.7819 20.8748 46.472 20.7979C44.7288 20.6923 43.7656 19.4968 43.7656 17.4226V11.9922H46.5828V16.5727C46.5828 17.533 47.1077 18.0948 48.0178 18.114C48.0275 18.114 48.0419 18.114 48.0515 18.114C48.8509 18.114 49.4721 17.5762 49.5636 16.784V11.9922H52.3808V17.8355C52.3808 18.162 52.4097 18.4789 52.7564 18.5221C52.8816 18.5365 53.0405 18.5173 53.1946 18.4693C53.1946 18.4693 53.3873 18.3732 53.4402 18.6277H53.4499Z" fill="white"/>
<path d="M66.3194 18.3831C65.1395 18.3831 64.2198 17.6149 64.2198 16.0976C64.2198 14.7484 64.8217 14.009 66.0015 13.9034C66.4879 13.8602 66.9598 13.9754 67.2295 14.2059C67.3692 14.3259 67.451 14.47 67.4607 14.6284C67.4703 14.7628 67.4655 14.9405 67.374 15.0845C66.9839 15.6943 65.833 15.8191 65.2936 15.5983C65.1684 15.5455 65.0432 15.6991 65.0384 15.8335C65.024 16.2993 65.1395 17.2548 66.3049 17.4036C66.3627 17.4132 66.4205 17.4132 66.4783 17.4132C67.74 17.3796 68.6935 16.8995 69.1461 16.5105C70.09 15.6943 70.1334 14.662 69.8203 13.7978C69.3388 12.4774 67.9711 11.7188 66.0786 11.7188C63.3818 11.7188 61.4219 13.6489 61.4219 16.3137C61.4219 18.9785 63.1844 20.8318 65.8041 20.8798C68.1589 20.9134 69.4736 19.8763 69.8878 19.4154L68.4094 17.8021C68.0819 18.0326 67.374 18.3831 66.3146 18.3831H66.3194Z" fill="white"/>
<path d="M60.3465 15.1415C60.4139 15.3479 60.6451 15.2759 60.8329 15.1607C61.7623 14.6037 61.9694 13.1585 61.6853 12.5535C61.3819 11.9053 60.8329 11.6316 60.0094 11.7133C58.9307 11.8237 58.0783 12.6639 57.6353 13.9603L57.4812 14.4116V11.9917H54.6641V20.6006H57.4812V15.9433C57.6401 15.2759 58.3191 14.8006 58.9066 14.5797C59.5182 14.3828 60.1057 14.4212 60.3513 15.1415H60.3465Z" fill="white"/>
<path d="M39.3661 15.1235C38.167 14.821 37.7962 14.677 37.7336 14.3313C37.6951 14.12 37.7962 13.904 37.8973 13.8079C38.0755 13.6399 38.4704 13.5102 39.0435 13.5294C39.472 13.5438 39.8573 13.7503 40.0644 13.9856C40.204 14.144 40.2907 14.3745 40.2281 14.605C40.2281 14.605 40.1799 14.701 40.2763 14.7394C40.3389 14.7682 40.4689 14.7826 40.6615 14.7682C41.4609 14.7394 42.4192 14.5185 42.4914 13.6687C42.5203 13.3038 42.3903 12.9533 42.1062 12.6556C41.5235 12.0458 40.3485 11.6953 38.8749 11.6953C36.6405 11.6953 34.8779 12.7564 34.8779 14.3313C34.8779 15.6901 35.8555 16.4247 37.7047 16.9384C39.5587 17.4618 39.8091 17.6394 39.8091 18.0524C39.8091 18.302 39.5876 18.7246 38.6823 18.7726C37.9262 18.8158 36.939 18.4269 36.3949 17.7499L34.7383 19.0414C35.6629 20.261 36.9968 20.8468 38.7545 20.8468C41.1623 20.8468 42.5829 19.6608 42.5829 17.9611C42.5829 16.5063 41.6776 15.7141 39.3613 15.1331L39.3661 15.1235Z" fill="white"/>
<path d="M17.5772 18.387C16.3974 18.387 15.4776 17.6188 15.4776 16.1015C15.4776 14.7523 16.0795 14.0129 17.2594 13.9073C17.7457 13.8641 18.2177 13.9793 18.4873 14.2098C18.627 14.3298 18.7089 14.4739 18.7185 14.6323C18.7281 14.7667 18.7185 14.9444 18.6318 15.0884C18.3236 15.583 17.0908 15.8231 16.5515 15.6022C16.4262 15.5494 16.301 15.703 16.2962 15.8375C16.2818 16.3032 16.3974 17.2587 17.5627 17.4075C17.6205 17.4171 17.6783 17.4171 17.7361 17.4171C18.9978 17.3835 19.9513 16.9034 20.404 16.5145C21.3478 15.6982 21.3912 14.6659 21.0781 13.8017C20.5966 12.4813 19.2289 11.7227 17.3364 11.7227C14.6396 11.7227 12.6797 13.6528 12.6797 16.3176C12.6797 18.9824 14.4422 20.8357 17.0619 20.8837C19.4168 20.9173 20.7314 19.8802 21.1456 19.4193L19.6672 17.806C19.3397 18.0365 18.6318 18.387 17.5724 18.387H17.5772Z" fill="#2E59A7"/>
<path d="M3.84402 16.2015C3.96923 16.2831 4.08962 16.2831 4.19075 16.1439C4.29187 15.995 4.38337 15.8702 4.4845 15.7934C4.71083 15.6205 4.93235 15.5533 5.22611 15.5293C5.77509 15.4813 6.40594 15.5629 7.05605 16.2975C8.2118 17.6083 7.71097 19.4664 7.71097 19.4664C7.71097 19.4664 7.00789 22.0352 4.12333 21.0893L3.5599 23.3172C4.1763 23.5524 4.90346 23.8021 6.40112 23.5668C7.14754 23.4468 8.91006 22.8754 9.72872 20.662L12.9167 11.9955H9.74798L8.49592 16.5904C8.45258 15.1212 8.0577 11.9475 5.61617 11.597C4.20519 11.3953 3.38653 12.5764 3.25651 13.5127C2.95794 15.6493 3.84884 16.2015 3.84884 16.2015H3.84402Z" fill="#2E59A7"/>
<path d="M25.7952 18.7648C24.8899 18.7167 24.6683 18.2942 24.6683 18.0445C24.6683 17.6316 24.9139 17.4588 26.7728 16.9306C28.622 16.4121 29.5995 15.6823 29.5995 14.3235C29.5995 12.7486 27.8418 11.6875 25.6026 11.6875C24.1338 11.6875 22.954 12.038 22.3713 12.6478C22.0872 12.9455 21.9571 13.296 21.986 13.6609C22.0631 14.5107 23.0214 14.7316 23.816 14.7604C24.0086 14.7748 24.1386 14.7604 24.2012 14.7316C24.2927 14.6884 24.2494 14.5971 24.2494 14.5971C24.1868 14.3667 24.2783 14.1314 24.4131 13.9778C24.6202 13.7473 25.0054 13.536 25.434 13.5216C26.0071 13.5024 26.402 13.6321 26.585 13.8001C26.6909 13.9009 26.7872 14.117 26.7487 14.3235C26.6861 14.6692 26.3201 14.8132 25.1162 15.1157C22.7951 15.6967 21.8945 16.4937 21.8945 17.9437C21.8945 19.6386 23.3151 20.8294 25.723 20.8294C27.4807 20.8294 28.8146 20.2388 29.7392 19.024L28.0826 17.7325C27.5385 18.4095 26.5512 18.7984 25.7952 18.7552V18.7648Z" fill="#2E59A7"/>
</g>
<defs>
<clipPath id="clip0_555_830">
<rect width="70" height="33" fill="white"/>
</clipPath>
</defs>
</svg>
